
<svg xmlns="http://www.w3.org/2000/svg" viewBox="0 0 355.18 296.77"><defs><style>.cls-1{fill:#e6e6e6;}</style></defs><title>Fichier 10</title><g id="Calque_2" data-name="Calque 2"><g id="Calque_1-2" data-name="Calque 1"><path class="cls-1" d="M0,178.25a10.88,10.88,0,0,0,.41-1.93c.18-4.59,0-9.21.51-13.76.75-7.07,1.6-14.16,3-21.12,1.79-9,3.9-18,6.32-26.93,4.07-15,10.29-29.23,17.54-43a192.21,192.21,0,0,1,16.6-25.76,155.7,155.7,0,0,1,18.91-20.5A103.59,103.59,0,0,1,83.75,10.56a87.92,87.92,0,0,1,22.82-8.85A73.2,73.2,0,0,1,129.77.44c4.19.37,7,2.24,8.77,6,1.36,2.91.43,5.74-.34,8.55-2.63,9.49-5.21,19-7.94,28.45-1.22,4.2-4.44,6.32-8.57,6.92a48.28,48.28,0,0,0-20.11,8.13C91.39,65.31,83.86,74.59,77.47,84.94c-8.2,13.29-14.09,27.58-18.8,42.4-1,3.09-1.85,6.21-2.77,9.3C60,135.38,64,133.9,68,133a121.69,121.69,0,0,1,13.19-2,59.78,59.78,0,0,1,9.91-.42c11.82.67,23.27,3,34.15,7.86A86.77,86.77,0,0,1,147.54,153a77.61,77.61,0,0,1,21,30.39,98.68,98.68,0,0,1,5.09,18.83,75.46,75.46,0,0,1,.25,21.39,80.17,80.17,0,0,1-10,30.94c-2.88,5.05-6.63,9.63-10.17,14.27a59.64,59.64,0,0,1-15.52,13.73,83.63,83.63,0,0,1-35.23,13.55c-6.07.85-12.36.37-18.54.16a78,78,0,0,1-23.77-5,79.87,79.87,0,0,1-25.28-14.71,87.4,87.4,0,0,1-19.94-25.19,109.83,109.83,0,0,1-11.5-32.88c-1.33-7.33-2.13-14.77-3-22.18-.38-3.21-.3-6.47-.48-9.71A11.85,11.85,0,0,0,0,184.64Z"/><path class="cls-1" d="M236.83,136.65c4-1.22,7.9-2.66,11.9-3.55,4.47-1,9-1.58,13.59-2.12a54.62,54.62,0,0,1,8.85-.43,96.24,96.24,0,0,1,32.32,6.72,83.73,83.73,0,0,1,22.79,13.67,81.48,81.48,0,0,1,17.6,20.95,86,86,0,0,1,10.3,27.58,62.74,62.74,0,0,1,.91,9.2c.15,3,.07,6,0,9a74.71,74.71,0,0,1-5.85,27.63A83.44,83.44,0,0,1,307,289.45a65.74,65.74,0,0,1-21.87,6.39c-6.09.57-12.27,1.22-18.33.78a88.57,88.57,0,0,1-37.54-10.9,79.57,79.57,0,0,1-20.45-16.31,99,99,0,0,1-18.54-31.24,148.35,148.35,0,0,1-7.14-27.78c-.77-4.54-1-9.19-1.33-13.8a137.47,137.47,0,0,1-.79-14.74c.28-8.57,1-17.12,1.64-25.67a191.66,191.66,0,0,1,5.56-31.63A203,203,0,0,1,198.93,92.4q4.35-9.95,9.26-19.64a154.88,154.88,0,0,1,17.58-27.34,175.52,175.52,0,0,1,12.15-14.2,120.2,120.2,0,0,1,26.24-20.41A87.19,87.19,0,0,1,287.54,1.7,64.9,64.9,0,0,1,310.73.56a13.36,13.36,0,0,1,5.72,2.06c3.52,2.49,4.38,6.22,3.28,10.26C317,23,314.05,33.17,311.19,43.31c-1.3,4.6-4.77,6.35-9.1,7.06A50.24,50.24,0,0,0,279.7,60.46C269.61,68.13,262.22,78.09,256,89c-7.24,12.58-12.46,26-16.85,39.82C238.27,131.41,237.57,134.07,236.83,136.65Z"/></g></g></svg>