<?xml version="1.0"?>
<svg xmlns="http://www.w3.org/2000/svg" xmlns:xlink="http://www.w3.org/1999/xlink" xmlns:svgjs="http://svgjs.com/svgjs" version="1.1" width="512" height="512" x="0" y="0" viewBox="0 0 512.023 512.023" style="enable-background:new 0 0 512 512" xml:space="preserve" class=""><g><g xmlns="http://www.w3.org/2000/svg"><path d="m497.011 0h-482c-8.284 0-15 6.716-15 15v420.052c0 8.284 6.716 15 15 15h226v31.971h-66.341c-8.284 0-15 6.716-15 15s6.716 15 15 15h162.682c8.284 0 15-6.716 15-15s-6.716-15-15-15h-66.341v-31.971h226c8.284 0 15-6.716 15-15v-420.052c0-8.284-6.716-15-15-15zm-467 270h90.5v90h-90.5zm120.5 0h90.5v90h-90.5zm120.5 0h90.5v90h-90.5zm120.5 0h90.5v90h-90.5zm0-30v-90h90.5v90zm-30 0h-90.5v-90h90.5zm-90.5-120v-90h90.5v90zm-30 0h-90.5v-90h90.5zm0 30v90h-90.5v-90zm-120.5 90h-90.5v-90h90.5zm361.5-120h-90.5v-90h90.5zm-361.5-90v90h-90.5v-90zm361.5 390.052h-452v-30.052h452z" fill="#ed3535" data-original="#000000" style="" class=""/></g></g></svg>
